<svg width="500" height="500" viewBox="0 0 500 500" fill="none" xmlns="http://www.w3.org/2000/svg">
<path d="M54.116 216.687C54.116 208.029 61.1496 201.01 69.826 201.01H431.156C439.832 201.01 446.866 208.029 446.866 216.687V283.313C446.866 291.971 439.832 298.99 431.156 298.99H69.826C61.1496 298.99 54.116 291.971 54.116 283.313V216.687Z" fill="#FF0053"/>
<path d="M283.875 54.0393C292.551 54.0393 299.585 61.0581 299.585 69.7162V430.284C299.585 438.942 292.551 445.961 283.875 445.961H217.107C208.431 445.961 201.397 438.942 201.397 430.284V69.7162C201.397 61.0581 208.431 54.0393 217.107 54.0393H283.875Z" fill="#FF0053"/>
<path d="M483.676 261.728C492.502 262.19 499.335 269.731 498.306 278.509C491.889 333.243 467.461 384.489 428.618 424.076C389.766 463.673 338.926 489.122 284.215 496.664C275.463 497.871 267.784 491.2 267.136 482.39L267.104 481.955C266.455 473.14 273.091 465.53 281.835 464.239C328.646 457.327 372.086 435.331 405.398 401.382C438.704 367.438 459.827 323.641 465.775 276.797C466.887 268.032 474.354 261.241 483.177 261.702L483.676 261.728Z" fill="#F4B400"/>
<path d="M237.755 482.695C237.292 491.518 229.753 498.349 220.978 497.325C166.121 490.928 114.759 466.546 75.0842 427.771C35.419 389.005 9.92187 338.281 2.35761 283.693C1.14446 274.938 7.81847 267.255 16.6332 266.609L17.1315 266.573C25.9426 265.927 33.549 272.56 34.8453 281.299C41.7738 328.009 63.8117 371.356 97.8232 404.597C131.84 437.843 175.733 458.926 222.679 464.857C231.448 465.965 238.241 473.434 237.778 482.26L237.755 482.695Z" fill="#0F9D58"/>
<path d="M16.3207 237.753C7.49624 237.291 0.66466 229.751 1.69037 220.975C8.1011 166.119 32.5304 114.758 71.3818 75.0842C110.233 35.4104 161.071 9.91082 215.781 2.35269C224.534 1.1434 232.215 7.81559 232.862 16.6284L232.899 17.1271C233.546 25.9399 226.912 33.5484 218.17 34.8414C171.357 41.7655 127.915 63.8053 94.6022 97.8232C61.2894 131.841 40.1642 175.736 34.2219 222.683C33.1123 231.45 25.6444 238.242 16.82 237.78L16.3207 237.753Z" fill="#4285F4"/>
<path d="M262.247 16.3207C262.709 7.49624 270.249 0.66466 279.025 1.69037C333.881 8.1011 385.242 32.5304 424.916 71.3818C464.59 110.233 490.089 161.071 497.647 215.781C498.857 224.534 492.184 232.215 483.372 232.862L482.873 232.899C474.06 233.546 466.452 226.912 465.159 218.17C458.235 171.357 436.195 127.915 402.177 94.6022C368.159 61.2894 324.264 40.1642 277.317 34.2219C268.55 33.1123 261.758 25.6444 262.22 16.82L262.247 16.3207Z" fill="#DB4437"/>
</svg>
